<svg xmlns="http://www.w3.org/2000/svg" viewBox="0 0 800 600">
  <defs>
    <linearGradient id="alps-sky" x1="0" y1="0" x2="0" y2="1">
      <stop offset="0%" stop-color="#0ea5e9" />
      <stop offset="70%" stop-color="#38bdf8" />
      <stop offset="100%" stop-color="#bae6fd" />
    </linearGradient>
    <linearGradient id="alps-snow" x1="0" y1="0" x2="1" y2="1">
      <stop offset="0%" stop-color="#e0f2fe" />
      <stop offset="100%" stop-color="#bfdbfe" />
    </linearGradient>
  </defs>
  <rect width="800" height="600" fill="url(#alps-sky)" />
  <g>
    <path
      d="M0 380 L140 300 L260 360 L360 260 L480 340 L620 250 L800 360 V600 H0 Z"
      fill="url(#alps-snow)"
    />
    <path
      d="M220 350 L360 260 L480 340 L620 250 L720 320"
      fill="none"
      stroke="#1d4ed8"
      stroke-width="12"
      stroke-linecap="round"
      opacity="0.35"
    />
    <path
      d="M120 460 Q200 430 280 460 T440 470 T600 450 T760 490"
      fill="#fef08a"
      opacity="0.6"
    />
  </g>
  <g fill="#1e3a8a" opacity="0.7">
    <rect x="160" y="440" width="60" height="110" rx="20" />
    <rect x="240" y="450" width="50" height="100" rx="18" />
    <rect x="520" y="430" width="70" height="120" rx="22" />
    <rect x="620" y="445" width="55" height="105" rx="18" />
  </g>
  <g fill="#f5f5f4">
    <rect x="188" y="470" width="12" height="36" rx="6" />
    <rect x="264" y="480" width="12" height="32" rx="6" />
    <rect x="548" y="468" width="12" height="36" rx="6" />
    <rect x="646" y="476" width="12" height="34" rx="6" />
  </g>
  <circle cx="640" cy="190" r="45" fill="#fde68a" opacity="0.8" />
  <path
    d="M360 520 H520"
    stroke="#f59e0b"
    stroke-width="12"
    stroke-linecap="round"
    opacity="0.6"
  />
</svg>
