<svg xmlns="http://www.w3.org/2000/svg" viewBox="0 0 800 600">
  <defs>
    <linearGradient id="krakow-sky" x1="0" y1="0" x2="0" y2="1">
      <stop offset="0%" stop-color="#1e293b" />
      <stop offset="50%" stop-color="#334155" />
      <stop offset="100%" stop-color="#111827" />
    </linearGradient>
    <radialGradient id="krakow-light" cx="0.5" cy="0.2" r="0.6">
      <stop offset="0%" stop-color="#facc15" />
      <stop offset="80%" stop-color="#f97316" stop-opacity="0.4" />
      <stop offset="100%" stop-color="#f97316" stop-opacity="0" />
    </radialGradient>
  </defs>
  <rect width="800" height="600" fill="url(#krakow-sky)" />
  <rect width="800" height="600" fill="url(#krakow-light)" />
  <g fill="#1f2937" opacity="0.75">
    <rect x="80" y="300" width="120" height="200" rx="12" />
    <rect x="220" y="320" width="100" height="180" rx="10" />
    <rect x="350" y="290" width="130" height="210" rx="14" />
    <rect x="500" y="310" width="120" height="190" rx="12" />
    <rect x="650" y="330" width="90" height="170" rx="10" />
  </g>
  <g fill="#fcd34d">
    <circle cx="140" cy="360" r="8" />
    <circle cx="180" cy="380" r="6" />
    <circle cx="260" cy="340" r="7" />
    <circle cx="320" cy="370" r="6" />
    <circle cx="400" cy="320" r="9" />
    <circle cx="430" cy="360" r="6" />
    <circle cx="540" cy="350" r="7" />
    <circle cx="580" cy="380" r="6" />
    <circle cx="690" cy="360" r="7" />
  </g>
  <path
    d="M60 480 Q140 450 220 480 T380 490 T540 470 T720 500"
    fill="none"
    stroke="#f97316"
    stroke-width="10"
    stroke-linecap="round"
    opacity="0.35"
  />
  <g fill="#111827" opacity="0.7">
    <rect x="180" y="440" width="40" height="100" />
    <rect x="420" y="430" width="36" height="110" />
    <rect x="600" y="450" width="34" height="90" />
  </g>
</svg>
